<svg width="81" height="80" viewBox="0 0 81 80" fill="none" xmlns="http://www.w3.org/2000/svg">
<g id="icon">
<rect x="0.5" width="80.0001" height="80" rx="10" fill="#1A4041"/>
<g id="Group 5">
<g id="Group 4">
<g id="Group 1">
<path id="Vector 1" d="M16.55 26.1401L13 20.6045H28.3834C33.9914 20.6044 35.5863 22.4868 38.8276 26.5966L35.4836 30.8194C35.4845 30.8208 35.4844 30.8208 35.4834 30.8197L35.4836 30.8194C35.4685 30.7985 35.2012 30.4639 34.1972 29.2218C33.127 27.8978 32.1392 26.1401 29.7211 26.1401H16.55Z" fill="#4FA284"/>
<path id="Vector 2" d="M28.6922 28.9355H18.4023C21.9524 34.0146 25.6053 34.2999 27.9205 34.4141H32.9111L33.8372 32.9303C33.2198 32.1504 32.1734 30.7425 31.5734 30.077C30.7502 29.1639 30.5959 28.9356 28.6922 28.9355Z" fill="#4FA284"/>
<path id="Vector 6" d="M52.256 28.8784H62.5459C58.9959 33.9575 55.343 34.2428 53.0278 34.3569H48.0372L47.1111 32.8732C47.7285 32.0932 48.7748 30.6853 49.3749 30.0198C50.198 29.1068 50.3524 28.8784 52.256 28.8784Z" fill="#4FA284"/>
<path id="Vector 3" d="M33.9406 40.4061C33.8994 43.2367 35.021 45.1998 35.5869 45.8275L39.034 41.2621C38.5196 39.3789 39.8572 37.8858 40.9377 36.5255C42.8413 34.1286 46.6795 29.2475 47.7804 27.9082C49.3754 25.9679 51.0732 26.1581 52.0507 26.1391H64.3986L68.0001 20.6035H51.6392C46.8544 20.6035 44.8978 23.0004 43.4587 24.8265C41.435 27.3946 37.1922 32.7818 36.4101 33.7862L36.3901 33.8119C35.413 35.0666 33.9917 36.892 33.9406 40.4061Z" fill="#4FA284"/>
<path id="Vector 4" d="M36.1523 17.3508C36.1524 19.2704 38.9992 22.8673 40.4741 24.4272C42.0176 22.8293 44.7959 19.5194 44.7959 17.0084C44.7959 14.7827 42.8922 12.5 40.3712 12.5C37.8502 12.5 36.1523 15.0681 36.1523 17.3508Z" fill="#EDE4DD"/>
<path id="Vector 5" d="M45.4132 35.0415L41.9147 39.4928C42.9437 41.0907 39.3937 45.1425 37.3357 47.8247C35.0003 50.8684 34.4031 51.9907 33.8886 53.7027C33.3741 55.4148 33.4255 59.1242 35.3292 61.6922C37.2328 64.2603 38.0045 66.9425 39.5995 67.342C41.1944 67.7414 42.1205 67.4561 43.098 65.6299C44.0756 63.8038 45.3618 62.1488 45.8248 61.3498C46.2879 60.5509 47.3683 59.0671 47.3169 55.8713C47.2757 53.3147 45.9963 51.0396 45.3618 50.2216L42.0176 54.6158C42.1033 54.6348 42.2748 55.0039 42.2748 56.3279C42.2748 57.6518 41.04 59.3525 40.4226 60.0373C38.7763 57.8116 38.519 56.442 38.7763 55.0724C39.0335 53.7027 42.8922 49.1944 44.0241 47.6535C45.156 46.1127 46.9567 44.3436 46.9567 40.1206C46.9567 37.8835 45.9277 35.8024 45.4132 35.0415Z" fill="#4FA284"/>
</g>
</g>
</g>
</g>
</svg>
